<?xml version="1.0" encoding="UTF-8"?>
<svg id="Layer_1" xmlns="http://www.w3.org/2000/svg" version="1.1" viewBox="0 0 543.5 385.5">
  <!-- Generator: Adobe Illustrator 29.7.1, SVG Export Plug-In . SVG Version: 2.1.1 Build 8)  -->
  <defs>
    <style>
      .st0 {
        fill: #fff;
      }
    </style>
  </defs>
  <g id="tp6zcN.tif">
    <path d="M542.88,10.67c-.15-.48-.33-.96-.54-1.42-1.5-2.74-3.31-5.23-6.21-6.7-1.16-.57-2.37-1.04-3.61-1.42-.38-.03-.75-.03-1.13,0-.43.03-.84-.22-1-.62l-1.41-.46H16c-2.67,1.76-5.59,3.24-7.93,5.36-2.54,2.49-3.96,5.91-3.91,9.47-.31,10-.45,20-.65,30,0,.31.07.63.17,1.5h535.22v34.12h-11.21c-27.84,0-55.67,0-83.5.14-34.74.12-69.48.28-104.22.49l-77,.39c-36.07.18-72.15.35-108.22.5-9.91.05-19.82.09-29.74.1h-18.71c-.14.43-.24.87-.3,1.32.12,12.58.25,25.16.38,37.73.07,5.83.21,11.66.23,17.49.13,45.41.25,90.81.36,136.22,0,7.08-.38,14.16-.29,21.23.05,3.23.5,6.45,1.33,9.57,1.42,5.32,5,8,10.52,8.31,2.31.13,4.64,0,6.95,0v71.51h16.5c0-1.16.12-2.33.12-3.49v-70.41l17.74-1.79V112.81h35.66v196.47l18.52,2.34v73.88h15v-73.66l18.1-2.34v-145.11c0-1.51-.19-2.87,1.85-3.48,1.14-.5,2.47-.14,3.2.87,10.89,11.93,21.81,23.84,32.77,35.72,4.27,4.67,8.36,9.5,12.75,14.06,2.29,2.33,3.62,5.44,3.7,8.71,0,.91.11,1.83.11,2.74v162.49h15.5c.17-22.06.33-44.12.49-66.19.18-30.98.34-61.96.47-92.94,0-3.83,0-7.66-.06-11.49-.08-2.29.98-4.47,2.83-5.82,14.51-11.39,26.19-25.55,38.41-39.17,2.89-3.22,5.75-6.47,8.6-9.69,4.08,1.35,4.14,1.42,4.14,5.47,0,46.99-.02,93.99-.07,141,0,2.64.77,3.33,3.31,3.45,4.72.22,9.43.9,14.38,1.41v74h17v-73.7c5-.63,9.82-1.42,14.69-1.78,2.58-.19,3.24-1.07,3.23-3.62-.07-63.4-.09-126.8-.06-190.2v-3.59h35.28v193.8c0,3.42,0,3.34,3.32,3.57,4.32.29,8.62.82,12.94,1.05,2.09.12,2.52,1,2.52,3-.07,22.67-.07,45.33,0,68,0,1.16.08,2.33.12,3.49h5.5v-73.95l17.91-1.81V112.79h35.48l1.44,268.66.83.36,3.84-6.8V11.5l-.09-.18c-.27-.13-.48-.36-.57-.65ZM306.62,167.4l-63.12-62.71h125.21c-20.96,21.21-41.66,42.11-62.09,62.71Z"/>
    <path class="st0" d="M3.69,46.32c.14.14.21.33.21.53,0,3.45.11,6.9,0,10.35-.07,2.26-.28,4.49-.53,6.73.32.53.49,1.13.48,1.75,0,5.27,0,10.54-.11,15.8,0,.47-.11.93-.3,1.36l62.42,1.76c.58,75.52,1.16,151.12,1.74,226.79l-17.6,3.31v70l-.24-.06s.08,0,.11.07c.07.08.13.17.17.27.05.1.07.21.07.32v.2h75.39v-71.47c-2.31,0-4.64.11-6.95,0-5.52-.33-9.1-3-10.52-8.31-.83-3.12-1.28-6.34-1.33-9.57-.09-7.07.3-14.15.29-21.23-.09-45.4-.21-90.81-.36-136.22,0-5.83-.16-11.66-.23-17.49-.13-12.57-.25-25.14-.38-37.73.06-.45.16-.89.3-1.32h18.71c9.91,0,19.82-.03,29.74-.1,36.08-.16,72.15-.33,108.22-.5l77-.39c34.74-.18,69.48-.34,104.22-.49,27.83-.1,55.66-.1,83.5-.14h11.19v-34.22H3.69Z"/>
    <path d="M65.88,84.6l-63-1.78c0,.21-.08.38-.11.53,0,.08,0,.15,0,.23,0,.15-.06.3-.14.42,0,.08,0,.15,0,.23-.49,19.56-.96,39.11-1.43,58.66-.26,11.32-.4,22.65-.65,34,0,2.05-.31,4.09-.48,6.14v154.41l.13.05.22.18c.14.13.24.3.29.48v.5c.13.24.25.49.34.75,8,22.08,23.22,36.82,45.37,44.46.78.26,1.6.41,2.77.67h.19c.11,0,.22.02.32.07.06.03.11.06.16.1l.24.06v-70l17.6-3.31c-.63-75.79-1.24-151.4-1.82-226.85Z"/>
    <path class="st0" d="M142,385.5c0-1.16.12-2.33.12-3.49v-70.41l17.74-1.79V112.81h35.64v196.47l18.52,2.34v73.88h-72.02Z"/>
    <path class="st0" d="M406.5,385.5v-73.67c5-.63,9.82-1.42,14.69-1.78,2.58-.19,3.24-1.07,3.23-3.62-.07-63.4-.09-126.8-.06-190.2v-3.59h35.28v193.8c0,3.42,0,3.34,3.32,3.57,4.32.29,8.62.82,12.94,1.05,2.09.12,2.52,1,2.52,3-.07,22.67-.07,45.33,0,68,0,1.16.08,2.33.12,3.49l-72.04-.05Z"/>
    <path class="st0" d="M229,385.5v-73.66l18.12-2.34v-145.11c0-1.51-.19-2.87,1.85-3.48,1.14-.5,2.47-.14,3.2.87,10.89,11.93,21.81,23.84,32.77,35.72,4.27,4.67,8.36,9.5,12.75,14.06,2.29,2.33,3.62,5.44,3.7,8.71,0,.91.11,1.83.11,2.74v162.49h-72.5Z"/>
    <path class="st0" d="M317,385.5c.17-22.06.33-44.12.49-66.19.18-30.98.34-61.96.47-92.94,0-3.83,0-7.66-.06-11.49-.08-2.29.98-4.47,2.83-5.82,14.51-11.39,26.19-25.55,38.41-39.17,2.89-3.22,5.75-6.47,8.6-9.69,4.08,1.35,4.14,1.42,4.14,5.47,0,46.99-.02,93.99-.07,141,0,2.64.77,3.33,3.31,3.45,4.72.22,9.43.9,14.38,1.41v74l-72.5-.03Z"/>
    <path class="st0" d="M537.37,384.92c1.61-.42,2.95-1.52,3.7-3,.88-1.48,1.5-3.11,1.83-4.8.08-.29.31-.5.6-.56v-1.56l-3.84,6.8-.83-.36-1.44-268.66h-35.48v197l-17.91,1.82v73.9h52.81c.06-.28.28-.51.56-.58Z"/>
    <path class="st0" d="M538.5,4.05c-1.65-1.57-3.75-2.59-6-2.92,1.24.38,2.45.85,3.61,1.42,2.9,1.47,4.71,4,6.21,6.7-.9-1.98-2.2-3.75-3.82-5.2Z"/>
    <path class="st0" d="M368.71,104.69c-20.96,21.21-41.66,42.11-62.09,62.71l-63.12-62.71h125.21Z"/>
  </g>
</svg>