<?xml version="1.0" encoding="UTF-8"?>
<svg id="Layer_1" xmlns="http://www.w3.org/2000/svg" version="1.1" viewBox="0 0 543.5 385.5">
  <!-- Generator: Adobe Illustrator 29.8.1, SVG Export Plug-In . SVG Version: 2.1.1 Build 2)  -->
  <defs>
    <style>
      .st0 {
        fill: #fff;
      }
    </style>
  </defs>
  <g id="tp6zcN.tif">
    <path class="st0" d="M3.69,46.32c.14.14.21.33.21.53,0,3.45.11,6.9,0,10.35-.07,2.26-.28,4.49-.53,6.73.32.53.49,1.13.48,1.75,0,5.27,0,10.54-.11,15.8,0,.47-.11.93-.3,1.36l62.42,1.76c.58,75.52,1.16,151.12,1.74,226.79l-17.6,3.31v70l-.24-.06s.08,0,.11.07c.07.08.13.17.17.27.05.1.07.21.07.32v.2h75.39v-71.47c-2.31,0-4.64.11-6.95,0-5.52-.33-9.1-3-10.52-8.31-.83-3.12-1.28-6.34-1.33-9.57-.09-7.07.3-14.15.29-21.23-.09-45.4-.21-90.81-.36-136.22,0-5.83-.16-11.66-.23-17.49-.13-12.57-.25-25.14-.38-37.73.06-.45.16-.89.3-1.32h18.71c9.91,0,19.82-.03,29.74-.1,36.08-.16,72.15-.33,108.22-.5l77-.39c34.74-.18,69.48-.34,104.22-.49,27.83-.1,55.66-.1,83.5-.14h11.19v-34.22H3.69Z"/>
    <path class="st0" d="M142,385.5c0-1.16.12-2.33.12-3.49v-70.41l17.74-1.79V112.81h35.64v196.47l18.52,2.34v73.88h-72.02Z"/>
    <path class="st0" d="M406.5,385.5v-73.67c5-.63,9.82-1.42,14.69-1.78,2.58-.19,3.24-1.07,3.23-3.62-.07-63.4-.09-126.8-.06-190.2v-3.59h35.28v193.8c0,3.42,0,3.34,3.32,3.57,4.32.29,8.62.82,12.94,1.05,2.09.12,2.52,1,2.52,3-.07,22.67-.07,45.33,0,68,0,1.16.08,2.33.12,3.49l-72.04-.05h0Z"/>
    <path class="st0" d="M229,385.5v-73.66l18.12-2.34v-145.11c0-1.51-.19-2.87,1.85-3.48,1.14-.5,2.47-.14,3.2.87,10.89,11.93,21.81,23.84,32.77,35.72,4.27,4.67,8.36,9.5,12.75,14.06,2.29,2.33,3.62,5.44,3.7,8.71,0,.91.11,1.83.11,2.74v162.49h-72.5Z"/>
    <path class="st0" d="M317,385.5c.17-22.06.33-44.12.49-66.19.18-30.98.34-61.96.47-92.94,0-3.83,0-7.66-.06-11.49-.08-2.29.98-4.47,2.83-5.82,14.51-11.39,26.19-25.55,38.41-39.17,2.89-3.22,5.75-6.47,8.6-9.69,4.08,1.35,4.14,1.42,4.14,5.47,0,46.99-.02,93.99-.07,141,0,2.64.77,3.33,3.31,3.45,4.72.22,9.43.9,14.38,1.41v74l-72.5-.03Z"/>
    <path class="st0" d="M537.37,384.92c1.61-.42,2.95-1.52,3.7-3,.88-1.48,1.5-3.11,1.83-4.8.08-.29.31-.5.6-.56v-1.56l-3.84,6.8-.83-.36-1.44-268.66h-35.48v197l-17.91,1.82v73.9h52.81c.06-.28.28-.51.56-.58h0Z"/>
    <path class="st0" d="M538.5,4.05c-1.65-1.57-3.75-2.59-6-2.92,1.24.38,2.45.85,3.61,1.42,2.9,1.47,4.71,4,6.21,6.7-.9-1.98-2.2-3.75-3.82-5.2Z"/>
    <path class="st0" d="M368.71,104.69c-20.96,21.21-41.66,42.11-62.09,62.71l-63.12-62.71s125.21,0,125.21,0Z"/>
  </g>
</svg>